<svg width="12" height="6" viewBox="0 0 12 6" fill="none" xmlns="http://www.w3.org/2000/svg">
<path d="M11.3537 0.85375L6.35366 5.85375C6.30722 5.90024 6.25207 5.93712 6.19138 5.96228C6.13068 5.98744 6.06561 6.00039 5.99991 6.00039C5.9342 6.00039 5.86913 5.98744 5.80844 5.96228C5.74774 5.93712 5.69259 5.90024 5.64616 5.85375L0.646155 0.85375C0.57615 0.783823 0.528466 0.694696 0.509141 0.597654C0.489816 0.500611 0.499718 0.400016 0.537594 0.308605C0.57547 0.217193 0.639617 0.139075 0.721914 0.08414C0.804211 0.0292046 0.900958 -7.77138e-05 0.999905 1.549e-07L10.9999 1.549e-07C11.0989 -7.77138e-05 11.1956 0.0292046 11.2779 0.08414C11.3602 0.139075 11.4243 0.217193 11.4622 0.308605C11.5001 0.400016 11.51 0.500611 11.4907 0.597654C11.4713 0.694696 11.4237 0.783823 11.3537 0.85375Z" fill="#201F24"/>
</svg>
